<svg xmlns="http://www.w3.org/2000/svg" width="480" height="280" viewBox="0 0 480 280">
  <style>
    rect.card-bg {
      fill: none;
      stroke: none;
      stroke-width: 0;
      rx: 8px;
    }
    text {
      font-family: -apple-system, BlinkMacSystemFont, "Segoe UI", Helvetica, Arial, sans-serif;
    }
    text.title {
      fill: #1f2328;
      font-size: 16px;
      font-weight: 600;
      text-anchor: middle;
    }
    text.label {
      fill: #24292f;
      font-size: 11px;
      font-weight: 600;
    }
    text.percentage {
      fill: #ffffff;
      font-size: 10px;
      font-weight: 700;
      text-anchor: middle;
      dominant-baseline: central;
    }
  </style>
  <rect class="card-bg" width="100%" height="100%" />
  <text class="title" x="240" y="35">Topic-wise Distribution</text>
  <g>
    <path d="M 150.00 50.00 A 90.00 90.00 0 1 1 81.06 197.85 L 111.70 172.14 A 50.00 50.00 0 1 0 150.00 90.00 Z" fill="#58a6ff" stroke="#ffffff" stroke-width="1.5" />
    <text class="percentage" x="213.44" y="169.58">64%</text>
    <path d="M 81.06 197.85 A 90.00 90.00 0 0 1 61.37 155.63 L 100.76 148.68 A 50.00 50.00 0 0 0 111.70 172.14 Z" fill="#bc8cff" stroke="#ffffff" stroke-width="1.5" />
    <text class="percentage" x="86.56" y="169.58">8%</text>
    <path d="M 61.37 155.63 A 90.00 90.00 0 0 1 65.43 109.22 L 103.02 122.90 A 50.00 50.00 0 0 0 100.76 148.68 Z" fill="#ff7b72" stroke="#ffffff" stroke-width="1.5" />
    <text class="percentage" x="80.27" y="133.90">8%</text>
    <path d="M 65.43 109.22 A 90.00 90.00 0 0 1 81.06 82.15 L 111.70 107.86 A 50.00 50.00 0 0 0 103.02 122.90 Z" fill="#d29922" stroke="#ffffff" stroke-width="1.5" />
    <text class="percentage" x="89.38" y="105.00">6%</text>
    <path d="M 81.06 82.15 A 90.00 90.00 0 0 1 105.00 62.06 L 125.00 96.70 A 50.00 50.00 0 0 0 111.70 107.86 Z" fill="#f0883e" stroke="#ffffff" stroke-width="1.5" />
    <text class="percentage" x="105.00" y="86.38">6%</text>
    <path d="M 105.00 62.06 A 90.00 90.00 0 0 1 134.37 51.37 L 141.32 90.76 A 50.00 50.00 0 0 0 125.00 96.70 Z" fill="#7ee787" stroke="#ffffff" stroke-width="1.5" />
    <text class="percentage" x="126.06" y="74.22">6%</text>
    <path d="M 134.37 51.37 A 90.00 90.00 0 0 1 150.00 50.00 L 150.00 90.00 A 50.00 50.00 0 0 0 141.32 90.76 Z" fill="#db61a2" stroke="#ffffff" stroke-width="1.5" />
    <rect x="280" y="72" width="12" height="12" rx="2" fill="#58a6ff" />
    <text class="label" x="300" y="80">Arrays (64%)</text>
    <rect x="280" y="94" width="12" height="12" rx="2" fill="#bc8cff" />
    <text class="label" x="300" y="102">Strings (8%)</text>
    <rect x="280" y="116" width="12" height="12" rx="2" fill="#ff7b72" />
    <text class="label" x="300" y="124">Dynamic Programming (8%)</text>
    <rect x="280" y="138" width="12" height="12" rx="2" fill="#d29922" />
    <text class="label" x="300" y="146">Linked List (6%)</text>
    <rect x="280" y="160" width="12" height="12" rx="2" fill="#f0883e" />
    <text class="label" x="300" y="168">Stack (6%)</text>
    <rect x="280" y="182" width="12" height="12" rx="2" fill="#7ee787" />
    <text class="label" x="300" y="190">Queue (6%)</text>
    <rect x="280" y="204" width="12" height="12" rx="2" fill="#db61a2" />
    <text class="label" x="300" y="212">Hash Map (3%)</text>
  </g>
</svg>