<svg xmlns="http://www.w3.org/2000/svg" width="480" height="280" viewBox="0 0 480 280">
  <style>
    rect.card-bg {
      fill: none;
      stroke: none;
      stroke-width: 0;
      rx: 8px;
    }
    text {
      font-family: -apple-system, BlinkMacSystemFont, "Segoe UI", Helvetica, Arial, sans-serif;
    }
    text.title {
      fill: #f0f6fc;
      font-size: 16px;
      font-weight: 600;
      text-anchor: middle;
    }
    text.label {
      fill: #c9d1d9;
      font-size: 11px;
      font-weight: 600;
    }
    text.percentage {
      fill: #ffffff;
      font-size: 10px;
      font-weight: 700;
      text-anchor: middle;
      dominant-baseline: central;
    }
  </style>
  <rect class="card-bg" width="100%" height="100%" />
  <text class="title" x="240" y="35">Topic-wise Distribution</text>
  <g>
    <path d="M 150.00 50.00 A 90.00 90.00 0 1 1 69.20 179.64 L 105.11 162.02 A 50.00 50.00 0 1 0 150.00 90.00 Z" fill="#58a6ff" stroke="#0d1117" stroke-width="1.5" />
    <text class="percentage" x="209.41" y="177.03">68%</text>
    <path d="M 69.20 179.64 A 90.00 90.00 0 0 1 61.04 126.37 L 100.58 132.43 A 50.00 50.00 0 0 0 105.11 162.02 Z" fill="#bc8cff" stroke="#0d1117" stroke-width="1.5" />
    <text class="percentage" x="80.81" y="150.60">10%</text>
    <path d="M 61.04 126.37 A 90.00 90.00 0 0 1 84.77 77.99 L 113.76 105.55 A 50.00 50.00 0 0 0 100.58 132.43 Z" fill="#ff7b72" stroke="#0d1117" stroke-width="1.5" />
    <text class="percentage" x="87.15" y="109.17">10%</text>
    <path d="M 84.77 77.99 A 90.00 90.00 0 0 1 98.59 66.13 L 121.44 98.96 A 50.00 50.00 0 0 0 113.76 105.55 Z" fill="#d29922" stroke="#0d1117" stroke-width="1.5" />
    <path d="M 98.59 66.13 A 90.00 90.00 0 0 1 131.88 51.84 L 139.94 91.02 A 50.00 50.00 0 0 0 121.44 98.96 Z" fill="#f0883e" stroke="#0d1117" stroke-width="1.5" />
    <text class="percentage" x="122.40" y="75.67">6%</text>
    <path d="M 131.88 51.84 A 90.00 90.00 0 0 1 150.00 50.00 L 150.00 90.00 A 50.00 50.00 0 0 0 139.94 91.02 Z" fill="#7ee787" stroke="#0d1117" stroke-width="1.5" />
    <rect x="280" y="72" width="12" height="12" rx="2" fill="#58a6ff" />
    <text class="label" x="300" y="80">Arrays (68%)</text>
    <rect x="280" y="94" width="12" height="12" rx="2" fill="#bc8cff" />
    <text class="label" x="300" y="102">Strings (10%)</text>
    <rect x="280" y="116" width="12" height="12" rx="2" fill="#ff7b72" />
    <text class="label" x="300" y="124">Dynamic Programming (10%)</text>
    <rect x="280" y="138" width="12" height="12" rx="2" fill="#d29922" />
    <text class="label" x="300" y="146">Linked List (3%)</text>
    <rect x="280" y="160" width="12" height="12" rx="2" fill="#f0883e" />
    <text class="label" x="300" y="168">Stack (6%)</text>
    <rect x="280" y="182" width="12" height="12" rx="2" fill="#7ee787" />
    <text class="label" x="300" y="190">Queue (3%)</text>
  </g>
</svg>