<svg xmlns="http://www.w3.org/2000/svg" width="480" height="280" viewBox="0 0 480 280">
  <style>
    rect.card-bg {
      fill: none;
      stroke: none;
      stroke-width: 0;
      rx: 8px;
    }
    text {
      font-family: -apple-system, BlinkMacSystemFont, "Segoe UI", Helvetica, Arial, sans-serif;
    }
    text.title {
      fill: #f0f6fc;
      font-size: 16px;
      font-weight: 600;
      text-anchor: middle;
    }
    text.label {
      fill: #c9d1d9;
      font-size: 11px;
      font-weight: 600;
    }
    text.percentage {
      fill: #ffffff;
      font-size: 10px;
      font-weight: 700;
      text-anchor: middle;
      dominant-baseline: central;
    }
  </style>
  <rect class="card-bg" width="100%" height="100%" />
  <text class="title" x="240" y="35">Topic-wise Distribution</text>
  <g>
    <path d="M 150.00 50.00 A 90.00 90.00 0 1 1 64.40 167.81 L 102.45 155.45 A 50.00 50.00 0 1 0 150.00 90.00 Z" fill="#58a6ff" stroke="#0d1117" stroke-width="1.5" />
    <text class="percentage" x="206.63" y="181.14">70%</text>
    <path d="M 64.40 167.81 A 90.00 90.00 0 0 1 60.49 130.59 L 100.27 134.77 A 50.00 50.00 0 0 0 102.45 155.45 Z" fill="#bc8cff" stroke="#0d1117" stroke-width="1.5" />
    <text class="percentage" x="80.38" y="147.32">7%</text>
    <path d="M 60.49 130.59 A 90.00 90.00 0 0 1 83.12 79.78 L 112.84 106.54 A 50.00 50.00 0 0 0 100.27 134.77 Z" fill="#ff7b72" stroke="#0d1117" stroke-width="1.5" />
    <text class="percentage" x="86.05" y="111.53">10%</text>
    <path d="M 83.12 79.78 A 90.00 90.00 0 0 1 97.10 67.19 L 120.61 99.55 A 50.00 50.00 0 0 0 112.84 106.54 Z" fill="#d29922" stroke="#0d1117" stroke-width="1.5" />
    <path d="M 97.10 67.19 A 90.00 90.00 0 0 1 131.29 51.97 L 139.60 91.09 A 50.00 50.00 0 0 0 120.61 99.55 Z" fill="#f0883e" stroke="#0d1117" stroke-width="1.5" />
    <text class="percentage" x="121.53" y="76.05">7%</text>
    <path d="M 131.29 51.97 A 90.00 90.00 0 0 1 150.00 50.00 L 150.00 90.00 A 50.00 50.00 0 0 0 139.60 91.09 Z" fill="#7ee787" stroke="#0d1117" stroke-width="1.5" />
    <rect x="280" y="72" width="12" height="12" rx="2" fill="#58a6ff" />
    <text class="label" x="300" y="80">Arrays (70%)</text>
    <rect x="280" y="94" width="12" height="12" rx="2" fill="#bc8cff" />
    <text class="label" x="300" y="102">Strings (7%)</text>
    <rect x="280" y="116" width="12" height="12" rx="2" fill="#ff7b72" />
    <text class="label" x="300" y="124">Dynamic Programming (10%)</text>
    <rect x="280" y="138" width="12" height="12" rx="2" fill="#d29922" />
    <text class="label" x="300" y="146">Linked List (3%)</text>
    <rect x="280" y="160" width="12" height="12" rx="2" fill="#f0883e" />
    <text class="label" x="300" y="168">Stack (7%)</text>
    <rect x="280" y="182" width="12" height="12" rx="2" fill="#7ee787" />
    <text class="label" x="300" y="190">Queue (3%)</text>
  </g>
</svg>